# xmcd
# 
# Track frame offsets:
#     150
#     35540
#     60442
#     82960
#     101155
#     120335
#     143870
#     163027
#     189230
#     213662
#     234527
#     254225
#     274662
# 
# Disc length: 3989
# 
# Revision: 11
# Processed by: cddbd v1.5.2PL0 Copyright (c) Steve Scherf et al.
# Submitted via: fre:ac v1.0.31
# 
DISCID=b70f930d
DTITLE=聖飢魔II - 愛と虐殺の日々 -  歴代小教典大全 [CD2 of 2)
DYEAR=1991
DGENRE=Heavy Metal
TTITLE0=怪力熊男
TTITLE1=BAD AGAIN (美しき反逆)
TTITLE2=JOKER (非力河童人間)
TTITLE3=有害ロック
TTITLE4=ピンクの恐竜
TTITLE5=ファラオのように
TTITLE6=織田信長
TTITLE7=赤い玉の伝説
TTITLE8=MR. GOLDEN LAND
TTITLE9=夏休み
TTITLE10=伝説のチャンバー・ライダー
TTITLE11=BLACKBASS
TTITLE12=GOOD NIGHT MELODIES
EXTD=YEAR: 1991
EXTT0=
EXTT1=
EXTT2=
EXTT3=
EXTT4=
EXTT5=
EXTT6=
EXTT7=
EXTT8=
EXTT9=
EXTT10=
EXTT11=
EXTT12=
PLAYORDER=
